<?xml version="1.0" encoding="UTF-8" standalone="no" ?>
<!DOCTYPE svg PUBLIC "-//W3C//DTD SVG 1.1//EN" "http://www.w3.org/Graphics/SVG/1.1/DTD/svg11.dtd">
<svg xmlns="http://www.w3.org/2000/svg" xmlns:xlink="http://www.w3.org/1999/xlink" version="1.1" width="1080" height="1080" viewBox="0 0 1080 1080" xml:space="preserve">
<desc>Created with Fabric.js 5.2.4</desc>
<defs>
</defs>
<g transform="matrix(1 0 0 1 540 540)" id="8f8dc43b-6d36-4d3c-ab5d-09b35872266e"  >
<rect style="stroke: none; stroke-width: 1; stroke-dasharray: none; stroke-linecap: butt; stroke-dashoffset: 0; stroke-linejoin: miter; stroke-miterlimit: 4; fill: rgb(255,255,255); fill-rule: nonzero; opacity: 1; visibility: hidden;" vector-effect="non-scaling-stroke"  x="-540" y="-540" rx="0" ry="0" width="1080" height="1080" />
</g>
<g transform="matrix(1 0 0 1 540 540)" id="f33e5c8b-6ff7-480f-9706-333d0cd5f5d1"  >
</g>
<g transform="matrix(1 0 0 1 540 540)" id="ef462455-1157-488b-ae96-2c7d3afbf759"  >
<path style="stroke: rgb(0,0,0); stroke-width: 0; stroke-dasharray: none; stroke-linecap: butt; stroke-dashoffset: 0; stroke-linejoin: miter; stroke-miterlimit: 4; fill: rgb(255,203,116); fill-rule: nonzero; opacity: 1;" vector-effect="non-scaling-stroke"  transform=" translate(-288, -256)" d="M 309 106 C 320.4 99 328 86.3 328 72 C 328 49.9 310.1 32 288 32 C 265.9 32 248 49.9 248 72 C 248 86.4 255.6 99 267 106 L 209.7 220.6 C 200.6 238.79999999999998 177 244 161.1 231.29999999999998 L 72 160 C 77 153.3 80 145 80 136 C 80 113.9 62.1 96 40 96 C 17.9 96 0 113.9 0 136 C 0 158.1 17.9 176 40 176 C 40.2 176 40.5 176 40.7 176 L 86.4 427.4 C 91.9 457.79999999999995 118.4 480 149.4 480 L 426.6 480 C 457.5 480 484 457.9 489.6 427.4 L 535.3 176 C 535.5 176 535.8 176 536 176 C 558.1 176 576 158.1 576 136 C 576 113.9 558.1 96 536 96 C 513.9 96 496 113.9 496 136 C 496 145 499 153.3 504 160 L 414.9 231.3 C 399 244 375.4 238.8 366.29999999999995 220.60000000000002 L 309 106 z" stroke-linecap="round" />
</g>
<g transform="matrix(NaN NaN NaN NaN 0 0)"  >
<g style=""   >
</g>
</g>
<g transform="matrix(NaN NaN NaN NaN 0 0)"  >
<g style=""   >
</g>
</g>
<g transform="matrix(NaN NaN NaN NaN 0 0)"  >
<g style=""   >
</g>
</g>
<g transform="matrix(NaN NaN NaN NaN 0 0)"  >
<g style=""   >
</g>
</g>
<g transform="matrix(NaN NaN NaN NaN 0 0)"  >
<g style=""   >
</g>
</g>
<g transform="matrix(NaN NaN NaN NaN 0 0)"  >
<g style=""   >
</g>
</g>
</svg>