<svg width="203" height="72" viewBox="0 0 203 72" fill="none" xmlns="http://www.w3.org/2000/svg">
<g style="mix-blend-mode:hard-light" opacity="0.8">
<g opacity="0.3">
<path d="M131.214 9.60001V-9C126.047 -8.68026 121.961 -4.63872 121.961 0.299979C121.961 5.23868 126.047 9.28016 131.214 9.60001Z" stroke="#8C8C8C"/>
<path d="M131.214 18.9001V0.300049C126.047 0.619791 121.961 4.66132 121.961 9.60003C121.961 14.5387 126.047 18.5802 131.214 18.9001Z" stroke="#8C8C8C"/>
<path d="M131.214 28.2V9.59998C126.047 9.91972 121.961 13.9613 121.961 18.9C121.961 23.8387 126.047 27.8801 131.214 28.2Z" stroke="#8C8C8C"/>
<path d="M131.214 37.5V18.9C126.047 19.2198 121.961 23.2613 121.961 28.2C121.961 33.1387 126.047 37.1802 131.214 37.5Z" stroke="#8C8C8C"/>
<path d="M131.214 46.8001V28.2001C126.047 28.5198 121.961 32.5613 121.961 37.5001C121.961 42.4388 126.047 46.4802 131.214 46.8001Z" stroke="#8C8C8C"/>
<path d="M131.214 56.1V37.5C126.047 37.8197 121.961 41.8613 121.961 46.8C121.961 51.7387 126.047 55.7802 131.214 56.1Z" stroke="#8C8C8C"/>
<path d="M131.214 65.4001V46.8C126.047 47.1198 121.961 51.1613 121.961 56.1C121.961 61.0387 126.047 65.0802 131.214 65.4001Z" stroke="#8C8C8C"/>
<path d="M131.214 74.7V56.1C126.047 56.4197 121.961 60.4613 121.961 65.4C121.961 70.3387 126.047 74.3801 131.214 74.7Z" stroke="#8C8C8C"/>
<path d="M131.214 84V65.4C126.047 65.7198 121.961 69.7613 121.961 74.7C121.961 79.6387 126.047 83.6802 131.214 84Z" stroke="#8C8C8C"/>
</g>
<g opacity="0.4">
<path d="M136.215 -9.00003V9.59998C141.383 9.28023 145.469 5.2387 145.469 0.299996C145.469 -4.63871 141.383 -8.68019 136.215 -9.00003Z" stroke="#8C8C8C"/>
<path d="M136.215 0.300018V18.9C141.383 18.5803 145.469 14.5387 145.469 9.60005C145.469 4.66134 141.383 0.619861 136.215 0.300018Z" stroke="#8C8C8C"/>
<path d="M136.215 9.60007V28.2001C141.383 27.8803 145.469 23.8388 145.469 18.9001C145.469 13.9614 141.383 9.91991 136.215 9.60007Z" stroke="#8C8C8C"/>
<path d="M136.215 18.9V37.5C141.383 37.1803 145.469 33.1387 145.469 28.2C145.469 23.2613 141.383 19.2198 136.215 18.9Z" stroke="#8C8C8C"/>
<path d="M136.215 28.2V46.8C141.383 46.4803 145.469 42.4388 145.469 37.5001C145.469 32.5614 141.383 28.5199 136.215 28.2Z" stroke="#8C8C8C"/>
<path d="M136.215 37.5V56.1C141.383 55.7802 145.469 51.7387 145.469 46.8C145.469 41.8613 141.383 37.8198 136.215 37.5Z" stroke="#8C8C8C"/>
<path d="M136.215 46.7999V65.3999C141.383 65.0802 145.469 61.0386 145.469 56.0999C145.469 51.1612 141.383 47.1197 136.215 46.7999Z" stroke="#8C8C8C"/>
<path d="M136.215 56.0999V74.7C141.383 74.3802 145.469 70.3387 145.469 65.4C145.469 60.4613 141.383 56.4198 136.215 56.0999Z" stroke="#8C8C8C"/>
<path d="M136.215 65.4V84C141.383 83.6803 145.469 79.6387 145.469 74.7C145.469 69.7613 141.383 65.7198 136.215 65.4Z" stroke="#8C8C8C"/>
</g>
<g opacity="0.5">
<path d="M159.722 9.60001V-9C154.555 -8.68026 150.469 -4.63872 150.469 0.299979C150.469 5.23868 154.555 9.28016 159.722 9.60001Z" stroke="#8C8C8C"/>
<path d="M159.722 18.9001V0.300049C154.555 0.619791 150.469 4.66132 150.469 9.60003C150.469 14.5387 154.555 18.5802 159.722 18.9001Z" stroke="#8C8C8C"/>
<path d="M159.722 28.2V9.59998C154.555 9.91972 150.469 13.9613 150.469 18.9C150.469 23.8387 154.555 27.8801 159.722 28.2Z" stroke="#8C8C8C"/>
<path d="M159.722 37.5V18.9C154.555 19.2198 150.469 23.2613 150.469 28.2C150.469 33.1387 154.555 37.1802 159.722 37.5Z" stroke="#8C8C8C"/>
<path d="M159.722 46.8001V28.2001C154.555 28.5198 150.469 32.5613 150.469 37.5001C150.469 42.4388 154.555 46.4802 159.722 46.8001Z" stroke="#8C8C8C"/>
<path d="M159.722 56.1V37.5C154.555 37.8197 150.469 41.8613 150.469 46.8C150.469 51.7387 154.555 55.7802 159.722 56.1Z" stroke="#8C8C8C"/>
<path d="M159.722 65.4001V46.8C154.555 47.1198 150.469 51.1613 150.469 56.1C150.469 61.0387 154.555 65.0802 159.722 65.4001Z" stroke="#8C8C8C"/>
<path d="M159.722 74.7V56.1C154.555 56.4197 150.469 60.4613 150.469 65.4C150.469 70.3387 154.555 74.3801 159.722 74.7Z" stroke="#8C8C8C"/>
<path d="M159.722 84V65.4C154.555 65.7198 150.469 69.7613 150.469 74.7C150.469 79.6387 154.555 83.6802 159.722 84Z" stroke="#8C8C8C"/>
</g>
<g opacity="0.6">
<path d="M164.723 -9.00003V9.59998C169.891 9.28023 173.977 5.2387 173.977 0.299996C173.977 -4.63871 169.891 -8.68019 164.723 -9.00003Z" stroke="#8C8C8C"/>
<path d="M164.723 0.300018V18.9C169.891 18.5803 173.977 14.5387 173.977 9.60005C173.977 4.66134 169.891 0.619861 164.723 0.300018Z" stroke="#8C8C8C"/>
<path d="M164.723 9.60007V28.2001C169.891 27.8803 173.977 23.8388 173.977 18.9001C173.977 13.9614 169.891 9.91991 164.723 9.60007Z" stroke="#8C8C8C"/>
<path d="M164.723 18.9V37.5C169.891 37.1803 173.977 33.1387 173.977 28.2C173.977 23.2613 169.891 19.2198 164.723 18.9Z" stroke="#8C8C8C"/>
<path d="M164.723 28.2V46.8C169.891 46.4803 173.977 42.4388 173.977 37.5001C173.977 32.5614 169.891 28.5199 164.723 28.2Z" stroke="#8C8C8C"/>
<path d="M164.723 37.5V56.1C169.891 55.7802 173.977 51.7387 173.977 46.8C173.977 41.8613 169.891 37.8198 164.723 37.5Z" stroke="#8C8C8C"/>
<path d="M164.723 46.7999V65.3999C169.891 65.0802 173.977 61.0386 173.977 56.0999C173.977 51.1612 169.891 47.1197 164.723 46.7999Z" stroke="#8C8C8C"/>
<path d="M164.723 56.0999V74.7C169.891 74.3802 173.977 70.3387 173.977 65.4C173.977 60.4613 169.891 56.4198 164.723 56.0999Z" stroke="#8C8C8C"/>
<path d="M164.723 65.4V84C169.891 83.6803 173.977 79.6387 173.977 74.7C173.977 69.7613 169.891 65.7198 164.723 65.4Z" stroke="#8C8C8C"/>
</g>
<g opacity="0.7">
<path d="M188.23 9.60001V-9C183.063 -8.68026 178.977 -4.63872 178.977 0.299979C178.977 5.23868 183.063 9.28016 188.23 9.60001Z" stroke="#8C8C8C"/>
<path d="M188.23 18.9001V0.300049C183.063 0.619791 178.977 4.66132 178.977 9.60003C178.977 14.5387 183.063 18.5802 188.23 18.9001Z" stroke="#8C8C8C"/>
<path d="M188.23 28.2V9.59998C183.063 9.91972 178.977 13.9613 178.977 18.9C178.977 23.8387 183.063 27.8801 188.23 28.2Z" stroke="#8C8C8C"/>
<path d="M188.242 37.6V19C183.074 19.3197 178.988 23.3613 178.988 28.3C178.988 33.2387 183.074 37.2802 188.242 37.6Z" stroke="#8C8C8C"/>
<path d="M188.23 46.8001V28.2001C183.063 28.5198 178.977 32.5613 178.977 37.5001C178.977 42.4388 183.063 46.4802 188.23 46.8001Z" stroke="#8C8C8C"/>
<path d="M188.23 56.1V37.5C183.063 37.8197 178.977 41.8613 178.977 46.8C178.977 51.7387 183.063 55.7802 188.23 56.1Z" stroke="#8C8C8C"/>
<path d="M188.23 65.4001V46.8C183.063 47.1198 178.977 51.1613 178.977 56.1C178.977 61.0387 183.063 65.0802 188.23 65.4001Z" stroke="#8C8C8C"/>
<path d="M188.23 74.7V56.1C183.063 56.4197 178.977 60.4613 178.977 65.4C178.977 70.3387 183.063 74.3801 188.23 74.7Z" stroke="#8C8C8C"/>
<path d="M188.23 84V65.4C183.063 65.7198 178.977 69.7613 178.977 74.7C178.977 79.6387 183.063 83.6802 188.23 84Z" stroke="#8C8C8C"/>
</g>
<g opacity="0.8">
<path d="M193.239 -9.00003V9.59998C198.406 9.28023 202.492 5.2387 202.492 0.299996C202.492 -4.63871 198.406 -8.68019 193.239 -9.00003Z" stroke="#8C8C8C"/>
<path d="M193.239 0.300018V18.9C198.406 18.5803 202.492 14.5387 202.492 9.60005C202.492 4.66134 198.406 0.619861 193.239 0.300018Z" stroke="#8C8C8C"/>
<path d="M193.239 9.60007V28.2001C198.406 27.8803 202.492 23.8388 202.492 18.9001C202.492 13.9614 198.406 9.91991 193.239 9.60007Z" stroke="#8C8C8C"/>
<path d="M193.239 18.9V37.5C198.406 37.1803 202.492 33.1387 202.492 28.2C202.492 23.2613 198.406 19.2198 193.239 18.9Z" stroke="#8C8C8C"/>
<path d="M193.239 28.2V46.8C198.406 46.4803 202.492 42.4388 202.492 37.5001C202.492 32.5614 198.406 28.5199 193.239 28.2Z" stroke="#8C8C8C"/>
<path d="M193.239 37.5V56.1C198.406 55.7802 202.492 51.7387 202.492 46.8C202.492 41.8613 198.406 37.8198 193.239 37.5Z" stroke="#8C8C8C"/>
<path d="M193.239 46.7999V65.3999C198.406 65.0802 202.492 61.0386 202.492 56.0999C202.492 51.1612 198.406 47.1197 193.239 46.7999Z" stroke="#8C8C8C"/>
<path d="M193.239 56.0999V74.7C198.406 74.3802 202.492 70.3387 202.492 65.4C202.492 60.4613 198.406 56.4198 193.239 56.0999Z" stroke="#8C8C8C"/>
<path d="M193.239 65.4V84C198.406 83.6803 202.492 79.6387 202.492 74.7C202.492 69.7613 198.406 65.7198 193.239 65.4Z" stroke="#8C8C8C"/>
</g>
</g>
</svg>
